<?xml version="1.0" encoding="UTF-8" standalone="no"?>
<svg width="64px" height="64px" viewBox="0 0 64 64" version="1.1" xmlns="http://www.w3.org/2000/svg" xmlns:xlink="http://www.w3.org/1999/xlink" xmlns:sketch="http://www.bohemiancoding.com/sketch/ns">
    <!-- Generator: Sketch 3.4.4 (17249) - http://www.bohemiancoding.com/sketch -->
    <title>rounded-rectangle-icon</title>
    <desc>Created with Sketch.</desc>
    <defs></defs>
    <g id="Page-1" stroke="none" stroke-width="1" fill="none" fill-rule="evenodd" sketch:type="MSPage">
        <g id="rounded-rectangle-icon" sketch:type="MSArtboardGroup" fill="#000000">
            <g id="pin" sketch:type="MSLayerGroup" transform="translate(13.000000, 5.000000)">
                <g id="Page-1" sketch:type="MSShapeGroup">
                    <g id="pin">
                        <path d="M19.2880887,0.106648199 C8.66897507,0.106648199 0.0761772853,8.69944598 0.0761772853,19.3185596 C0.0761772853,33.7160665 19.2880887,54.9847645 19.2880887,54.9847645 C19.2880887,54.9847645 38.5,33.7160665 38.5,19.3185596 C38.5,8.69944598 29.9072023,0.106648199 19.2880887,0.106648199 L19.2880887,0.106648199 L19.2880887,0.106648199 Z M19.2880887,26.1745152 C15.4944598,26.1745152 12.432133,23.0969529 12.432133,19.3185596 C12.432133,15.5249307 15.5096953,12.4626039 19.2880887,12.4626039 C23.0817175,12.4626039 26.1440443,15.5401662 26.1440443,19.3185596 C26.1592798,23.1121884 23.0817175,26.1745152 19.2880887,26.1745152 L19.2880887,26.1745152 L19.2880887,26.1745152 Z" id="Shape"></path>
                    </g>
                </g>
            </g>
        </g>
    </g>
</svg>